<svg xmlns="http://www.w3.org/2000/svg" xmlns:xlink="http://www.w3.org/1999/xlink" version="1.1" x="0" y="0" viewBox="0 0 1920 1080" xml:space="preserve" enable-background="new 0 0 1920 1080"><style>.s0{overflow:visible;}</style>
    <g id="Telttag"><image width="1920" height="133" id="Telttag_xA0_Image" xlink:href="43656260" overflow="visible"/></g>
    <g id="Teltramme"><image width="1920" height="953" id="Teltramme_xA0_Image" xlink:href="43656261" transform="matrix(1 0 0 1 0 127)" overflow="visible"/>
    </g>
    <g id="Teltdug"><image width="1920" height="1080" id="Teltsider_x2B_Bar_xA0_Image" xlink:href="43656267" overflow="visible"/>
    </g>
    <g id="Lyskæde"><image width="1300" height="77" id="Lyskæde_xA0_Image" xlink:href="43656262" transform="matrix(1 0 0 1 310 133)" overflow="visible"/>
    </g>
    <g id="Popcornmaskine"><image width="224" height="384" id="Popcornmaskine_xA0_Image" xlink:href="43656263" transform="matrix(1 0 0 1 1464.0765 385.0147)" overflow="visible"/>
    </g>
    <g id="Slushicemaskine"><image width="200" height="415" id="Slush_ice_maskine_xA0_Image" xlink:href="4365626" transform="matrix(1 0 0 1 1288.0789 414.5192)" overflow="visible"/>
    </g>
    <g id="Softicemaskine"><image width="358" height="437" id="Softice_maskine_xA0_Image" xlink:href="4365626" transform="matrix(1 0 0 1 1109.0789 358.5147)" overflow="visible"/>
    </g>
    <g id="Bord"><image width="460" height="358" id="Bord_xA0_Image" xlink:href="43656264" transform="matrix(1 0 0 1 59.2703 655.1859)" overflow="visible"/>
    </g>
    <g id="Glas"><image width="76" height="94" id="Glas_xA0_Image" xlink:href="43656265" transform="matrix(1 0 0 1 146.5 655.1859)" overflow="visible"/>
    </g>
    <g id="Tallerken"><image width="80" height="34" id="Tallerken_xA0_Image" xlink:href="BDA7383F.png" transform="matrix(1 0 0 1 254 715.1859)" overflow="visible"/></g>
    <g id="Bestik"><image width="97" height="61" id="Bestik_xA0_Image" xlink:href="BDA7383D.png" transform="matrix(1 0 0 1 334 665.5)" overflow="visible"/>
    </g>
    <g id="Stol"><image width="136" height="223" id="Stol_xA0_Image" xlink:href="BDA7383B.png" transform="matrix(1 0 0 1 501.937 572)" overflow="visible"/></g></svg>